PathFileType	3	(X/Y/Z)	D:\minhoCalibration\240510\subject5_KPNP\preferred\preferred15.trc
DataRate	CameraRate	NumFrames	NumMarkers	Units	OrigDataRate	OrigDataStartFrame	OrigNumFrames
200.0	200.0	12	10	mm	200.0	305	136	
Frame#	Time	Left_Ankle_Outer1			Left_Ankle_Inner1			Left_Knee_Outer1			Left_Knee_Inner1			Left_Wrist1			Right_Wrist1			Right_Knee_Inner1			Right_Knee_Outer1			Right_Ankle_Inner1			Right_Ankle_Outer1			
		X1	Y1	Z1	X2	Y2	Z2	X3	Y3	Z3	X4	Y4	Z4	X5	Y5	Z5	X6	Y6	Z6	X7	Y7	Z7	X8	Y8	Z8	X9	Y9	Z9	X10	Y10	Z10	
305	1.515	82.157486	74.519218	-598.94073	32.631924	84.727066	-593.93872	168.72234	525.56305	-463.05859	77.177727	511.47754	-443.25632	246.92751	967.18982	-591.47705	-7.5288043	1174.2833	-536.04016	-210.13393	899.98938	-157.29645	-248.00424	975.47656	-185.93063	-479.18375	702.83923	129.9176	-550.36902	746.2157	79.465843
306	1.52	82.135155	74.627296	-598.84833	32.247158	84.59156	-593.62183	167.89502	525.68616	-463.32434	76.022224	512.03656	-444.73514	248.23729	968.0979	-590.53979	-8.1473293	1173.5033	-536.76727	-210.47182	891.67218	-160.62366	-248.42764	967.75208	-188.57062	-481.28848	686.78918	118.66709	-552.10931	730.3606	68.873474
307	1.525	82.000549	74.513397	-598.84528	32.141933	84.578674	-593.75049	167.14334	525.78229	-463.64148	75.145355	512.5824	-446.30603	249.46773	969.26312	-589.86865	-8.9139633	1173.0371	-537.22174	-210.84334	883.44037	-164.39616	-249.26692	959.677	-191.24004	-482.84473	670.57294	107.6088	-553.59503	714.38843	57.840874
308	1.53	81.973671	74.585106	-598.78571	32.119061	84.588737	-593.8551	166.73347	525.93616	-464.12473	74.662468	512.92145	-447.75375	250.18463	970.39795	-589.33124	-9.7446623	1172.3051	-537.72955	-210.80574	875.10059	-168.5889	-249.81653	951.36737	-194.16948	-484.17554	654.20654	96.19368	-554.77679	698.44965	46.498268
309	1.535	82.050446	74.517059	-598.82092	32.157139	84.61937	-593.94611	166.35736	526.07141	-464.80093	74.399902	513.40387	-449.07697	251.27139	971.08142	-587.88159	-10.594767	1171.5316	-538.28619	-210.87132	867.02527	-173.09743	-250.35643	943.17474	-197.20934	-484.68558	633.80206	75.871948	-555.72223	682.57477	34.812878
310	1.54	81.865631	74.417145	-598.66693	32.211906	84.642319	-594.04846	166.3918	526.33069	-465.73575	74.146721	513.65698	-450.71411	252.26187	972.0777	-586.95581	-11.505073	1170.6757	-538.76172	-210.91829	858.48914	-177.51216	-250.77641	934.76166	-200.5513	-485.53445	617.14227	63.96711	-556.39117	666.57294	22.638767
311	1.545	82.170212	74.416016	-598.89191	32.146397	84.639656	-594.02289	166.65709	526.67596	-466.89386	74.492615	514.05438	-451.99911	252.93062	973.00385	-586.3465	-12.406059	1169.7872	-539.1889	-210.67842	849.6615	-181.68134	-251.1949	926.37726	-204.08147	-485.30228	605.10358	65.606934	-556.95233	650.66583	9.6161423
312	1.55	82.379562	74.451256	-598.95154	32.307671	84.625824	-594.01355	166.97687	527.00592	-468.08316	74.888763	514.45111	-452.99094	254.01768	973.75153	-584.14062	-13.297913	1169.0557	-539.86682	-210.53076	840.82367	-186.40805	-251.37234	917.65564	-207.90666	-484.40997	589.93115	57.1544	-556.99457	634.93323	-2.783766
313	1.555	82.426041	74.353256	-599.02252	32.5755	84.692688	-594.27063	167.384	527.36005	-469.37476	75.449478	514.51746	-453.93573	254.99297	975.11578	-582.25696	-14.116311	1168.1263	-540.59686	-210.27806	832.43628	-191.38705	-251.4861	908.99951	-211.93828	-485.92465	567.83997	27.768173	-556.81128	619.15942	-15.809262
314	1.56	82.635986	74.388771	-599.10583	32.893394	84.771194	-594.72894	167.95213	527.65527	-470.58478	75.537941	514.44171	-455.41061	255.88527	976.20697	-580.82721	-14.960393	1167.1038	-541.44116	-209.80174	823.71497	-196.61409	-251.21423	900.20111	-216.37411	-486.69131	552.745	14.920476	-556.26917	603.46423	-29.080427
315	1.565	82.68972	74.395927	-599.10645	32.81741	84.762268	-594.375	168.43611	527.91302	-471.68219	76.006371	514.47351	-456.38562	256.60422	977.08325	-579.53516	-16.049057	1165.9375	-543.18054	-209.0858	814.83826	-202.32663	-251.15669	891.31616	-220.72878	-485.64859	536.15027	0.5578174	-555.40521	587.96155	-42.764866
316	1.57	82.767517	74.358154	-599.10999	32.910969	84.774994	-595.125	168.98607	528.1474	-472.75821	76.548294	514.68121	-457.37756	257.50317	978.08051	-578.32721	-16.738134	1165.0145	-543.19373	-208.40074	805.94568	-208.18536	-250.9718	882.4325	-225.31389	-484.26028	519.7207	-14.256804	-554.13647	572.48883	-56.509743
